<svg version="1.1" xmlns="http://www.w3.org/2000/svg" width="31" height="42.552" viewBox="0 0 31 42.552" xmlns:xlink="http://www.w3.org/1999/xlink"><path d="M0 0h31v42.552H0z" fill="#FDFDFD"/><path d="M11.062 13.541h1.023l0.987 -0.001h0.618l1.71 -0.001h0.555l1.784 -0.001 1.834 -0.001 1.029 -0.001h1.808l0.141 -0.001c0.528 0.003 1.019 0.118 1.415 0.482 0.259 0.275 0.388 0.609 0.39 0.986v0.394l0.001 0.469 0.001 0.336 0.003 1.01v0.286l0.003 2.29q0 0.826 0.004 1.653l0.003 1.699 0.001 0.953 0.001 0.813 0.001 0.413c0.008 1.286 0.008 1.286 -0.446 1.753 -0.458 0.399 -0.953 0.449 -1.539 0.449H22.237l-0.421 0.001 -0.454 0.001 -1.098 0.001h-0.517l-2.169 0.001h-0.113l-1.797 0.003 -1.846 0.003 -1.036 0.001 -0.883 0.001 -0.45 0.001h-0.489l-0.141 0.001c-0.535 -0.004 -0.995 -0.155 -1.392 -0.52 -0.491 -0.531 -0.391 -1.334 -0.39 -2.003v-2.07l0.001 -1.772q0.001 -0.759 0 -1.518v-3.9l0.001 -0.439 -0.001 -0.128c0.004 -0.489 0.146 -0.854 0.474 -1.219 0.46 -0.394 0.965 -0.421 1.546 -0.421" fill="#5F515D"/><path d="M11.934 15.84h0.221l0.6 0.003 0.629 0.001 1.057 0.004q0.743 0.005 1.487 0.005l1.159 0.004h0.125l0.712 0.004 0.216 0.001c0.964 0.004 2.196 0.037 2.932 0.756 0.35 0.354 0.394 0.728 0.391 1.218 -0.058 0.944 -0.41 1.824 -1.093 2.479 -0.516 0.443 -1.023 0.483 -1.669 0.461q-0.217 -0.018 -0.435 -0.041a16.472 16.472 0 0 0 -1.533 -0.055l-0.447 -0.001a11.805 11.805 0 0 0 -1.76 0.125q-0.24 0.033 -0.479 0.056l-0.015 0.084a5.491 5.491 0 0 1 -0.198 0.745 35.689 35.689 0 0 0 -0.375 1.234c-0.253 0.866 -0.253 0.866 -0.616 1.095 -0.452 0.237 -0.94 0.388 -1.425 0.545q-0.361 0.118 -0.714 0.255c-0.106 0.03 -0.106 0.03 -0.231 -0.012l0.14 -0.545 0.04 -0.156 0.038 -0.151 0.036 -0.139q0.055 -0.192 0.119 -0.38l0.121 -0.46q0.048 -0.174 0.106 -0.345c0.07 -0.206 0.128 -0.416 0.187 -0.625 0.202 -0.71 0.375 -1.252 1.046 -1.638 1.36 -0.714 2.896 -0.722 4.399 -0.74 1.091 0.012 1.091 0.012 2.038 -0.434 0.222 -0.393 0.383 -0.965 0.332 -1.412 -0.058 -0.162 -0.136 -0.221 -0.283 -0.299 -0.582 -0.273 -1.241 -0.254 -1.87 -0.255l-0.228 -0.001 -0.611 -0.003 -0.641 -0.003 -1.211 -0.005 -1.38 -0.005q-1.419 -0.003 -2.837 -0.008v-0.084l0.085 -0.067c0.099 -0.08 0.17 -0.151 0.253 -0.247a8.236 8.236 0 0 1 0.504 -0.524c0.111 -0.103 0.111 -0.103 0.155 -0.191 0.199 -0.328 0.586 -0.255 0.922 -0.251" fill="#F6F6F6"/><path d="M14.793 17.91c0.084 0.084 0.084 0.084 0.093 0.217a1.784 1.784 0 0 1 -0.082 0.432l-0.045 0.151 -0.048 0.155 -0.048 0.158 -0.118 0.383 -0.07 0.008c-0.916 0.118 -1.822 0.277 -2.59 0.822l-0.125 0.084c0.086 -0.405 0.191 -0.796 0.327 -1.187a5.491 5.491 0 0 0 0.188 -0.67c0.026 -0.096 0.026 -0.096 0.108 -0.221 0.117 -0.036 0.117 -0.036 0.265 -0.063l0.081 -0.015 0.259 -0.048 0.177 -0.033c1.242 -0.229 1.242 -0.229 1.628 -0.172" fill="#F8F9FA"/><path d="m18.417 15.201 0.449 -0.001h0.286l0.136 -0.001h0.235c0.092 0.011 0.092 0.011 0.217 0.095 -0.081 0.023 -0.081 0.023 -0.166 0.041l-0.041 -0.041a4.118 4.118 0 0 0 -0.21 -0.003l-0.115 0.001 -0.091 0.001c0.071 0.071 0.172 0.065 0.269 0.078l0.143 0.021 0.296 0.041c0.247 0.036 0.478 0.078 0.712 0.166 0.088 0.033 0.088 0.033 0.231 0.059 0.383 0.092 0.773 0.328 1.094 0.55l0.088 0.06c0.323 0.232 0.652 0.557 0.784 0.938l0.044 0.075a1.235 1.235 0 0 1 0.081 0.423l0.01 0.147c0.026 0.596 -0.139 1.205 -0.528 1.672 -0.058 0.058 -0.058 0.058 -0.146 0.133l0.016 -0.073c0.062 -0.288 0.092 -0.574 0.114 -0.868l0.011 -0.136q0.027 -0.354 0.026 -0.711l-0.084 -0.041 0.026 -0.081c0.037 -0.299 -0.077 -0.544 -0.229 -0.795 -0.049 -0.081 -0.049 -0.081 -0.091 -0.206l-0.091 -0.032c-0.118 -0.051 -0.118 -0.051 -0.214 -0.178 -0.571 -0.701 -1.775 -0.855 -2.604 -0.953a16.472 16.472 0 0 0 -1.517 -0.049H17.433a32.944 32.944 0 0 0 -1.986 0.062l-0.187 0.011 -0.088 0.005a10.981 10.981 0 0 1 -0.792 0.012c0.152 -0.102 0.29 -0.113 0.467 -0.133l0.103 -0.012 0.328 -0.04 0.214 -0.027 0.531 -0.065 0.29 -0.036a17.844 17.844 0 0 1 2.104 -0.108" fill="#FCEFDF"/><path d="m22.362 22.388 0.144 0.003 0.349 0.008a0.645 0.645 0 0 1 -0.041 0.457 5.491 5.491 0 0 0 -0.041 0.373c-1.418 0.498 -3.021 0.489 -4.504 0.56l-0.136 0.007a9.609 9.609 0 0 1 -0.596 0.015c0.152 -0.102 0.268 -0.092 0.445 -0.088l0.088 0.001 0.216 0.004 -0.084 -0.25 0.15 -0.001 0.556 -0.01 0.239 -0.004 0.346 -0.005 0.107 -0.001c0.511 -0.012 0.899 -0.21 1.297 -0.516l0.086 -0.066 0.167 -0.132c0.386 -0.301 0.728 -0.371 1.213 -0.356" fill="#842601"/><path d="m13.755 17.203 1.51 -0.004 0.701 -0.001 0.678 -0.001 0.257 -0.001c1.605 -0.008 1.605 -0.008 2.051 0.365 0.163 0.206 0.192 0.343 0.163 0.6 -0.156 0.737 -0.156 0.737 -0.332 1.039l-0.125 0.041q0.041 -0.255 0.107 -0.507c0.067 -0.288 0.118 -0.577 0.015 -0.862 -0.431 -0.458 -1.279 -0.406 -1.863 -0.442l-0.449 -0.029 -0.103 -0.005a4.118 4.118 0 0 1 -0.242 -0.025l-0.041 -0.084 -2.327 -0.041z" fill="#233152"/><path d="M21.567 22.564c-0.036 0.198 -0.036 0.198 -0.084 0.291h-0.084l-0.041 0.125c-0.242 0.155 -0.242 0.155 -0.382 0.187 -0.111 0.03 -0.162 0.106 -0.242 0.187 -0.372 0.277 -0.701 0.358 -1.16 0.376l-0.154 0.008 -0.482 0.022 -0.325 0.015 -0.594 0.027 -0.121 0.005q-0.183 0.005 -0.365 0.004c0.152 -0.102 0.268 -0.092 0.445 -0.088l0.088 0.001 0.216 0.004 -0.084 -0.25 0.15 -0.001 0.556 -0.01 0.239 -0.004 0.346 -0.005 0.107 -0.001c0.64 -0.015 1.089 -0.343 1.573 -0.729l0.082 -0.065 0.074 -0.059c0.075 -0.041 0.075 -0.041 0.242 -0.041" fill="#6F210F"/><path d="M19.448 24.269v0.166l-0.865 0.288 -0.933 0.313 -0.377 0.128 -0.178 0.06 -0.25 0.085 -0.143 0.048c-0.121 0.033 -0.121 0.033 -0.287 0.033l-0.041 -0.084 -0.078 0.026 -0.088 0.016 -0.084 -0.084 0.103 -0.032 0.384 -0.119 0.165 -0.051q0.412 -0.126 0.821 -0.264 0.273 -0.092 0.555 -0.154a5.079 5.079 0 0 0 0.826 -0.281c0.365 -0.151 0.365 -0.151 0.469 -0.099" fill="#7F280D"/><path d="M17.287 15.25v0.041l-0.291 0.041 0.457 0.041v0.084l0.125 0.041 -1.012 0.049 -0.471 0.022 -0.454 0.022 -0.173 0.008q-0.545 0.027 -1.09 0.023c0.152 -0.102 0.29 -0.113 0.467 -0.133l0.103 -0.012 0.328 -0.04 0.214 -0.027 0.53 -0.065 0.303 -0.037 0.188 -0.023 0.085 -0.011q0.343 -0.041 0.689 -0.025" fill="#F8FAFB"/><path d="m23.063 22.149 0.125 0.041v0.084h0.084c0.266 0.62 0.351 1.389 0.17 2.048a1.373 1.373 0 0 1 -0.17 0.279l-0.066 0.088a0.494 0.494 0 0 1 -0.266 0.162 2.745 2.745 0 0 1 -0.461 -0.147 2.471 2.471 0 0 0 -0.598 -0.129c-0.106 -0.015 -0.106 -0.015 -0.188 -0.058 -0.14 -0.018 -0.281 -0.023 -0.423 -0.032l-0.118 -0.008a1.098 1.098 0 0 0 -0.623 0.124c-0.11 0.012 -0.11 0.012 -0.205 0.008l-0.097 -0.004 -0.071 -0.004c0.48 -0.32 1.182 -0.261 1.725 -0.156q0.464 0.099 0.91 0.258c0.104 0.03 0.104 0.03 0.196 -0.004a0.824 0.824 0 0 0 0.207 -0.231l0.063 -0.093c0.133 -0.25 0.156 -0.494 0.155 -0.773v-0.104a2.69 2.69 0 0 0 -0.347 -1.267z" fill="#F07E49"/><path d="m13.755 17.203 1.536 -0.004 0.712 -0.001 0.688 -0.001 0.262 -0.001h0.368l0.11 -0.001h0.189c0.081 0.01 0.081 0.01 0.248 0.093l-0.457 0.041v0.084l0.08 -0.003c0.239 -0.005 0.439 0.018 0.668 0.086 -0.154 0.054 -0.275 0.032 -0.434 0.008 -0.399 -0.058 -0.802 -0.078 -1.204 -0.1l-0.154 -0.01 -0.14 -0.008 -0.106 -0.016 -0.041 -0.084 -2.327 -0.041z" fill="#203D6B"/><path d="M19.157 21.442c0.244 0.036 0.468 0.136 0.697 0.224 0.209 0.078 0.415 0.141 0.633 0.192l-0.041 0.084a4.942 4.942 0 0 1 -1.205 0.084l-0.041 -0.373h-0.041z" fill="#942611"/><path d="M17.958 15.198h1.322l0.128 0.001h0.113c0.093 0.01 0.093 0.01 0.218 0.093 -0.081 0.023 -0.081 0.023 -0.166 0.041l-0.041 -0.041a4.118 4.118 0 0 0 -0.21 -0.003l-0.115 0.001 -0.091 0.001 0.041 0.084 -2.078 -0.041v-0.041a3.294 3.294 0 0 1 0.878 -0.095" fill="#FBB310"/><path d="M19.739 15.666c0.712 0.089 1.43 0.321 1.953 0.83l-0.041 0.078c-0.048 0.085 -0.048 0.085 -0.041 0.172h-0.084l-0.074 -0.113c-0.372 -0.552 -1.108 -0.755 -1.713 -0.927z" fill="#E0760F"/><path d="m19.364 24.226 0.084 0.041v0.166l-0.579 0.198 -0.196 0.067 -0.283 0.096 -0.089 0.032c-0.209 0.07 -0.209 0.07 -0.347 0.023v-0.084q0.338 -0.147 0.684 -0.27l0.202 -0.074 0.099 -0.036 0.192 -0.074q0.117 -0.047 0.236 -0.086" fill="#AC3408"/><path d="M18.778 15.116q0.14 0.014 0.28 0.011c0.148 -0.003 0.286 0.011 0.431 0.041v0.041l-0.07 0.001 -0.744 0.012 -0.276 0.004a21.962 21.962 0 0 0 -1.738 0.089q-0.226 0.021 -0.454 0.018l0.041 -0.084q0.184 -0.029 0.369 -0.044l0.115 -0.011c0.376 -0.032 0.752 -0.045 1.13 -0.056 0.276 -0.007 0.276 -0.007 0.549 -0.037a1.235 1.235 0 0 1 0.368 0.012" fill="#3C7BAC"/><path d="M22.855 22.398a0.961 0.961 0 0 1 0.198 0.373l0.033 0.107a0.384 0.384 0 0 1 -0.023 0.268c-0.122 0.075 -0.122 0.075 -0.25 0.125l-0.084 -0.041c0.021 -0.232 0.059 -0.441 0.125 -0.664z" fill="#DF6133"/><path d="M19.157 21.442c0.148 0.025 0.277 0.066 0.416 0.125l-0.084 0.041 0.015 0.184 0.008 0.104 0.019 0.086 0.084 0.041h-0.373l-0.041 -0.373h-0.041z" fill="#6E2521"/><path d="m21.276 22.98 0.084 0.041c-0.692 0.631 -0.692 0.631 -1.005 0.626l-0.159 -0.001c0.055 -0.11 0.108 -0.118 0.221 -0.163 0.136 -0.058 0.246 -0.118 0.361 -0.21h0.084l0.029 -0.081c0.054 -0.086 0.054 -0.086 0.155 -0.113l0.106 -0.015z" fill="#9F2602"/><path d="m17.412 24.933 -0.498 0.207 0.084 0.084 -0.198 0.084 -0.111 0.047c-0.108 0.036 -0.108 0.036 -0.275 0.036l-0.041 -0.084 -0.078 0.026 -0.088 0.016 -0.084 -0.084 0.511 -0.162 0.174 -0.055 0.25 -0.078 0.151 -0.048c0.119 -0.03 0.119 -0.03 0.203 0.011" fill="#56241A"/><path d="m17.91 20.944 0.559 -0.003 0.161 -0.001h0.294c0.108 0.004 0.108 0.004 0.151 0.045q0.104 0.014 0.21 0.023l0.115 0.011 0.089 0.007 -0.041 0.084h-0.084v0.084l0.084 0.041a8.236 8.236 0 0 1 -0.652 -0.148 4.118 4.118 0 0 0 -0.885 -0.102z" fill="#70251A"/><path d="M19.198 24.144h0.955v0.084l-0.306 0.107 -0.088 0.032a4.118 4.118 0 0 1 -0.229 0.07l-0.084 -0.041 0.041 -0.084 -0.084 -0.041 0.041 -0.084h-0.25z" fill="#E55A26"/><path d="M20.985 16.164c0.233 -0.036 0.358 0.056 0.542 0.183 0.081 0.067 0.081 0.067 0.165 0.192l-0.084 0.041v0.166h-0.084l-0.065 -0.107c-0.102 -0.163 -0.246 -0.262 -0.399 -0.375l-0.075 -0.058z" fill="#EC7308"/><path d="M16.539 15.5h1.912v0.041l-0.088 0.003 -0.401 0.015 -0.137 0.005q-0.402 0.015 -0.803 0.054a1.647 1.647 0 0 1 -0.441 -0.034z" fill="#5B85AB"/><path d="m19.448 24.226 -0.327 0.128 -0.093 0.037 -0.243 0.085 -0.084 -0.041 0.207 -0.041v-0.084h-0.955v-0.041l0.579 -0.038 0.196 -0.012 0.283 -0.018 0.089 -0.005a0.824 0.824 0 0 1 0.347 0.033" fill="#4A2427"/><path d="M22.813 22.398c0.047 0.065 0.047 0.065 0.084 0.166a5.491 5.491 0 0 1 -0.084 0.291 6.863 6.863 0 0 0 -0.041 0.373l-0.177 0.06 -0.099 0.033a4.118 4.118 0 0 1 -0.265 0.074v-0.084c0.239 -0.125 0.239 -0.125 0.332 -0.125l0.034 -0.085a6.863 6.863 0 0 1 0.114 -0.262c0.059 -0.15 0.085 -0.281 0.102 -0.442" fill="#BD3202"/><path d="m15.541 15.459 -0.125 0.041 0.332 0.041v0.041c-0.457 0.026 -0.913 0.049 -1.371 0.041a0.618 0.618 0 0 1 0.321 -0.119l0.115 -0.016 0.121 -0.016 0.121 -0.018 0.222 -0.032a0.686 0.686 0 0 1 0.264 0.036" fill="#B8CFE3"/><path d="m23.063 22.149 0.125 0.041v0.084h0.084c0.154 0.358 0.21 0.696 0.25 1.08h-0.084l-0.04 -0.161 -0.055 -0.214 -0.026 -0.106a2.745 2.745 0 0 0 -0.255 -0.642z" fill="#E37B49"/><path d="m21.692 18.575 0.084 0.125c-0.036 0.118 -0.036 0.118 -0.096 0.253l-0.059 0.135 -0.095 0.195c0.211 0.004 0.211 0.004 0.416 -0.041l-0.041 0.291 -0.084 -0.041v-0.125l-0.416 0.084c0.027 -0.139 0.051 -0.246 0.1 -0.373l0.034 -0.089 0.034 -0.091 0.036 -0.093z" fill="#CD4B07"/><path d="M18.907 18.409h0.084a1.784 1.784 0 0 1 -0.207 0.789l-0.125 0.041c0.026 -0.196 0.08 -0.371 0.148 -0.556l0.029 -0.081z" fill="#1C2542"/><path d="m17.323 20.895 0.092 -0.001c0.159 0 0.235 0.001 0.369 0.092l-1.246 0.084v-0.084l0.089 -0.008 0.115 -0.011 0.115 -0.01c0.452 -0.063 0.452 -0.063 0.464 -0.063" fill="#271E38"/><path d="M21.567 24.393v0.041l-0.154 0.004 -0.202 0.008 -0.1 0.003a1.098 1.098 0 0 0 -0.449 0.089 0.618 0.618 0 0 1 -0.339 0.069l-0.097 -0.004 -0.071 -0.003c0.417 -0.279 0.933 -0.221 1.412 -0.207" fill="#E8A07B"/><path d="M19.448 24.269v0.166a1.098 1.098 0 0 1 -0.416 0.084v-0.166l0.161 -0.065 0.091 -0.037c0.081 -0.025 0.081 -0.025 0.165 0.018" fill="#B63807"/><path d="M19.07 15.194q0.096 0 0.191 0.003h0.097c0.162 0.001 0.243 0.005 0.38 0.096 -0.081 0.023 -0.081 0.023 -0.166 0.041l-0.041 -0.041a4.118 4.118 0 0 0 -0.21 -0.003l-0.115 0.001 -0.091 0.001 0.041 0.084 -0.373 -0.041c0.125 -0.125 0.125 -0.125 0.287 -0.14" fill="#F19E0A"/><path d="M19.157 21.442h0.125c0.092 0.189 0.107 0.375 0.125 0.582h-0.166l-0.041 -0.373h-0.041z" fill="#562831"/><path d="m23.354 19.116 0.084 0.041c-0.08 0.321 -0.216 0.726 -0.498 0.914 0.08 -0.207 0.176 -0.408 0.27 -0.608 0.054 -0.115 0.104 -0.226 0.144 -0.347" fill="#B94B15"/><path d="M16.248 21.11v0.041l0.664 0.041v0.041l-0.512 0.005 -0.147 0.003 -0.141 0.001 -0.13 0.001c-0.108 -0.01 -0.108 -0.01 -0.232 -0.093 0.166 -0.055 0.327 -0.044 0.498 -0.041" fill="#CDD1DC"/><path d="M17.287 15.25v0.041l-0.291 0.041 0.041 0.084h-0.498v-0.084l-0.084 -0.041a5.491 5.491 0 0 1 0.83 -0.041" fill="#F1EED2"/><path d="m21.276 22.98 0.084 0.041 -0.174 0.158 -0.097 0.089c-0.1 0.082 -0.194 0.151 -0.31 0.21l-0.084 -0.041 0.093 -0.073c0.113 -0.088 0.113 -0.088 0.198 -0.18a1.098 1.098 0 0 1 0.291 -0.205" fill="#A92C01"/><path d="M19.198 24.144h0.955v0.084l-0.373 0.084 0.084 -0.041v-0.084h-0.664z" fill="#F2C3AF"/><path d="M18.118 15.209v0.041l-0.107 0.008 -0.139 0.011 -0.139 0.01c-0.11 0.001 -0.11 0.001 -0.155 0.055a5.491 5.491 0 0 1 -0.253 0.003l-0.139 -0.001 -0.108 -0.001v-0.041c0.347 -0.099 0.681 -0.091 1.039 -0.084" fill="#EDC145"/><path d="M17.91 20.944h1.121l0.041 0.084c-0.2 0.03 -0.342 0.041 -0.541 0l-0.324 -0.023 -0.088 -0.005 -0.21 -0.014z" fill="#501E1F"/><path d="M14.088 24.31v0.041l0.207 0.041v0.041h-0.789a1.098 1.098 0 0 1 0.582 -0.125" fill="#E3E7EC"/><path d="M23.437 23.354h0.041q0.008 0.203 0.011 0.405l0.004 0.115c0.004 0.286 0.004 0.286 -0.099 0.42l-0.082 0.056 0.038 -0.148c0.063 -0.279 0.071 -0.564 0.085 -0.85" fill="#F6B28C"/><path d="m22.44 19.198 0.084 0.041 -0.291 0.416c-0.055 -0.163 -0.01 -0.254 0.041 -0.416l0.166 0.041z" fill="#FBD4BF"/><path d="m15.541 15.459 -0.125 0.041 0.332 0.041v0.041l-0.286 0.005 -0.161 0.003c-0.135 -0.007 -0.135 -0.007 -0.218 -0.091 0.309 -0.102 0.309 -0.102 0.457 -0.041" fill="#CCDEED"/><path d="M14.918 18.076c0.084 0.156 0.084 0.156 0.084 0.25l0.125 0.041 -0.099 0.029c-0.118 0.045 -0.118 0.045 -0.163 0.163l-0.029 0.099c-0.052 -0.147 -0.03 -0.237 0.018 -0.384l0.036 -0.113z" fill="#19315E"/><path d="m17.744 24.851 -0.207 0.084 0.041 0.125c-0.099 0.026 -0.099 0.026 -0.207 0.041l-0.084 -0.084c0.15 -0.159 0.239 -0.233 0.457 -0.166" fill="#712913"/><path d="M22.522 21.817c0.163 -0.007 0.275 -0.004 0.416 0.084v0.084l0.125 0.041 -0.041 0.125 -0.085 -0.075a1.647 1.647 0 0 0 -0.413 -0.216z" fill="#DF855C"/><path d="m19.489 15.707 0.084 0.084q0.124 0.025 0.25 0.041v0.125l-0.373 0.041 0.084 -0.084c-0.014 -0.108 -0.014 -0.108 -0.041 -0.207" fill="#695D6C"/><path d="M20.86 15.334v0.041a10.981 10.981 0 0 1 -0.748 -0.084v-0.041c0.288 -0.044 0.489 -0.06 0.748 0.084" fill="#246FAE"/><path d="M18.367 24.683c-0.118 0.136 -0.195 0.188 -0.373 0.207l-0.041 -0.125c0.276 -0.13 0.276 -0.13 0.416 -0.084" fill="#A12C05"/><path d="M22.647 22.98h0.041v0.207h-0.084l-0.041 0.125c-0.077 0.03 -0.077 0.03 -0.169 0.049l-0.092 0.021 -0.071 0.014v-0.084c0.239 -0.125 0.239 -0.125 0.332 -0.125z" fill="#A32C03"/><path d="m20.903 23.354 0.084 0.041 -0.084 0.084 0.207 0.041v0.041l-0.457 0.041z" fill="#7C1C02"/><path d="M16.996 20.903h0.166l-0.041 0.125 -0.582 0.041v-0.084l0.089 -0.008 0.115 -0.011 0.115 -0.01c0.093 -0.003 0.093 -0.003 0.136 -0.055" fill="#13234A"/><path d="m21.608 24.435 0.203 0.018 0.114 0.01c0.099 0.014 0.099 0.014 0.181 0.055v0.084c-0.334 -0.027 -0.334 -0.027 -0.498 -0.166" fill="#F38E5A"/><path d="M19.074 24.974a0.549 0.549 0 0 1 -0.34 0.108l-0.114 0.01 -0.086 0.007c0.173 -0.115 0.335 -0.203 0.541 -0.125" fill="#CD9174"/><path d="m19.364 24.226 0.084 0.041v0.166l-0.207 -0.041 0.041 -0.125z" fill="#CA3A05"/><path d="M23.354 24.31a0.412 0.412 0 0 1 -0.084 0.291c-0.088 0.052 -0.088 0.052 -0.166 0.084a0.769 0.769 0 0 1 0.25 -0.373" fill="#F57B47"/><path d="M15.084 22.772a0.782 0.782 0 0 1 0.25 0.373h-0.125z" fill="#DCDCE3"/><path d="m20.155 21.817 0.332 0.041 -0.041 0.084h-0.291z" fill="#831709"/><path d="m14.17 15.584 0.332 0.041 -0.041 0.084 -0.291 -0.041z" fill="#245C96"/><path d="m11.718 20.155 0.084 0.125 0.166 -0.084 -0.166 0.207 -0.125 -0.041z" fill="#182B4D"/><path d="M21.899 19.24c0.026 0.075 0.026 0.075 0.041 0.166l-0.084 0.125 -0.015 -0.081 -0.025 -0.086 -0.084 -0.041z" fill="#C93D0A"/><path d="M18.741 18.907c0.047 0.073 0.047 0.073 0.084 0.166 -0.036 0.093 -0.036 0.093 -0.084 0.166h-0.084c0.036 -0.239 0.036 -0.239 0.084 -0.332" fill="#202D51"/></svg>