<svg version="1.1" xmlns="http://www.w3.org/2000/svg" width="159.256" height="106.171" viewBox="0 0 159.256 106.171"><path d="M0 0h159.256v106.171H0z" fill="#FDFDFD"/><path d="m68.503 61.156 0.415 -0.002q0.562 -0.002 1.125 -0.002 0.357 -0.001 0.714 -0.001c1.114 -0.003 2.228 -0.004 3.342 -0.004l0.802 0c4.518 -0.002 9.032 0.015 13.547 0.169l0.296 0.01c2.485 0.084 4.967 0.206 7.449 0.342 0.637 0.035 1.274 0.068 1.912 0.101q1.986 0.105 3.972 0.214l0.712 0.039c2.655 0.145 5.303 0.315 7.95 0.566 1.104 0.104 2.206 0.188 3.313 0.244 -0.224 1.126 -0.463 2.228 -0.829 3.318l-0.247 0.74 -0.064 0.193c-3.462 0.57 -6.926 1.108 -10.404 1.579a316.647 316.647 0 0 0 -1.414 0.196c-1.612 0.226 -3.22 0.445 -4.844 0.563 -0.438 0.034 -0.872 0.088 -1.308 0.145 -0.856 0.109 -1.714 0.188 -2.575 0.259l-0.47 0.04q-0.491 0.041 -0.982 0.081 -0.491 0.041 -0.982 0.082c-3.317 0.28 -6.618 0.519 -9.948 0.51q-0.335 -0.001 -0.67 -0.001c-3.147 -0.003 -6.268 -0.174 -9.398 -0.495 -0.94 -0.096 -1.881 -0.185 -2.822 -0.275q-0.537 -0.052 -1.075 -0.104c-1.458 -0.141 -1.458 -0.141 -2.917 -0.269 -4.186 -0.35 -8.353 -1.002 -12.501 -1.648 -0.798 -0.124 -1.597 -0.243 -2.396 -0.361 -2.974 -0.439 -5.941 -0.903 -8.905 -1.405l-0.733 -0.124 -0.35 -0.059c-1.021 -0.172 -2.044 -0.328 -3.068 -0.476v-0.207c1.613 -0.679 3.259 -1.037 4.977 -1.348l0.26 -0.047c1.539 -0.279 3.082 -0.514 4.633 -0.724l0.342 -0.047c2.972 -0.404 5.951 -0.799 8.946 -0.979 0.875 -0.053 1.744 -0.134 2.616 -0.225 2.587 -0.262 5.187 -0.37 7.786 -0.431l0.396 -0.01 0.341 -0.007c0.32 -0.015 0.634 -0.04 0.952 -0.07 0.703 -0.059 1.402 -0.068 2.107 -0.068" fill="#B52C0A"/><path d="m83.238 28.903 0.224 -0.002c0.558 -0.004 1.116 -0.005 1.674 -0.006l0.248 0c2.431 -0.004 4.824 0.054 7.234 0.394 0.366 0.052 0.733 0.097 1.1 0.14 1.46 0.173 2.879 0.418 4.291 0.838 0.272 0.08 0.543 0.157 0.817 0.229 4.292 1.144 8.443 3.032 11.698 6.105l0.266 0.243c1.465 1.386 2.715 3.169 3.466 5.045v0.311l-0.383 0.008q-0.71 0.015 -1.42 0.031 -0.306 0.007 -0.612 0.013 -0.442 0.009 -0.885 0.019l-0.272 0.005c-0.535 0.013 -1.062 0.049 -1.594 0.109 -0.287 0.029 -0.571 0.033 -0.859 0.029l-0.292 -0.003 -0.213 -0.004 -0.118 -0.311c-0.286 -0.741 -0.58 -1.41 -1.023 -2.074v-0.207l-0.329 0.113 -0.429 0.146 -0.217 0.075c-0.309 0.105 -0.562 0.184 -0.891 0.184l0.159 0.337 0.204 0.447 0.105 0.221c0.22 0.487 0.297 0.845 0.258 1.379l-0.18 0.032c-1.718 0.303 -3.431 0.621 -5.108 1.109l-0.008 -0.304c-0.067 -1.541 -0.514 -2.578 -1.651 -3.636l-0.174 -0.179c-3.005 -2.929 -8.415 -3.744 -12.404 -4.137a37.948 37.948 0 0 1 -0.605 -0.064c-1.992 -0.23 -3.982 -0.21 -5.983 -0.202 -0.364 0.001 -0.729 0.001 -1.093 0.001 -3.392 0 -6.733 0.17 -10.106 0.538l-0.244 0.026c-0.787 0.085 -1.566 0.174 -2.34 0.342 -0.312 0.063 -0.625 0.1 -0.94 0.138 -2.281 0.275 -4.58 0.714 -6.793 1.335 -0.601 0.167 -1.211 0.297 -1.82 0.433 -0.917 0.207 -1.816 0.442 -2.713 0.722a20.944 20.944 0 0 1 -1.499 0.406c-1.159 0.279 -2.281 0.684 -3.408 1.069a82.22 82.22 0 0 1 -0.577 0.195v-0.207c2.666 -1.499 5.528 -2.689 8.398 -3.733l0.307 -0.113c1.285 -0.472 2.573 -0.863 3.901 -1.195 0.591 -0.148 1.174 -0.319 1.755 -0.5 0.433 -0.132 0.847 -0.212 1.295 -0.265v-0.311q-0.636 0.146 -1.272 0.293 -0.216 0.05 -0.431 0.099c-0.824 0.189 -1.637 0.392 -2.444 0.645q-0.272 0.081 -0.544 0.16l-0.91 0.266a125.353 125.353 0 0 1 -1.712 0.488c-2.011 0.559 -3.986 1.208 -5.959 1.886l-0.207 0.071c-1.538 0.526 -3.047 1.093 -4.536 1.745l-0.318 0.139 -0.278 0.123c-0.259 0.1 -0.505 0.158 -0.779 0.204 0.298 -0.234 0.602 -0.424 0.936 -0.604l0.316 -0.171c2.716 -1.455 5.461 -2.802 8.295 -4.012q0.278 -0.119 0.556 -0.239c1.554 -0.668 3.136 -1.244 4.731 -1.803l0.285 -0.1c1.101 -0.386 2.204 -0.738 3.33 -1.041 0.69 -0.187 1.37 -0.409 2.05 -0.63 2.096 -0.662 4.287 -1.037 6.44 -1.462l0.21 -0.042c2.141 -0.424 4.27 -0.79 6.445 -0.989q0.313 -0.032 0.625 -0.065c1.649 -0.17 3.297 -0.262 4.955 -0.271" fill="#946340"/><path d="M41.325 41.699c0.463 0.01 0.925 0.01 1.388 0.011 0.777 0.003 1.553 0.013 2.33 0.028 1.091 0.02 2.182 0.029 3.273 0.035 0.852 0.005 1.704 0.014 2.556 0.023l0.274 0.003q0.784 0.008 1.568 0.022 0.236 0.004 0.472 0.007c1.537 0.017 3.152 0.149 4.345 1.221 0.683 0.754 0.808 1.574 0.778 2.569 -0.093 1.201 -0.5 2.368 -0.855 3.512 -0.148 0.479 -0.27 0.951 -0.364 1.443 -0.242 1.111 -0.847 2.298 -1.62 3.136l-0.164 0.181c-0.429 0.421 -0.92 0.708 -1.449 0.985l-0.19 0.103c-1.347 0.67 -2.855 0.64 -4.319 0.627q-0.293 -0.001 -0.586 -0.001c-0.509 -0.001 -1.018 -0.004 -1.526 -0.008 -0.521 -0.003 -1.043 -0.005 -1.564 -0.006 -1.019 -0.003 -2.038 -0.009 -3.057 -0.015l-0.047 0.343c-0.053 0.356 -0.129 0.685 -0.225 1.03a75.065 75.065 0 0 0 -0.42 1.595l-0.094 0.371a172.423 172.423 0 0 0 -0.184 0.733l-0.089 0.349 -0.078 0.309 -0.107 0.35 -0.067 0.262c-0.216 0.7 -0.216 0.7 -0.561 0.897 -0.276 0.078 -0.542 0.123 -0.826 0.16l-0.308 0.051c-0.324 0.053 -0.648 0.099 -0.973 0.145q-0.327 0.052 -0.653 0.106c-1.674 0.268 -1.674 0.268 -2.315 0.244 0.068 -0.804 0.286 -1.563 0.499 -2.339l0.108 -0.399a565.483 565.483 0 0 1 0.217 -0.798c0.177 -0.652 0.35 -1.306 0.524 -1.959q0.156 -0.584 0.311 -1.167 0.102 -0.385 0.203 -0.77a65.837 65.837 0 0 1 0.619 -2.197 44.169 44.169 0 0 0 0.394 -1.421l0.095 -0.362q0.093 -0.354 0.183 -0.71c0.245 -0.935 0.481 -1.723 1.305 -2.29 0.289 -0.093 0.55 -0.116 0.852 -0.116h0.258l0.275 0.002 0.284 0.001c0.299 0.001 0.598 0.002 0.897 0.003q0.304 0.001 0.609 0.001 0.745 0.002 1.491 0.005a78.799 78.799 0 0 1 -0.687 2.605l-0.098 0.352 -0.094 0.335 -0.085 0.302c-0.073 0.242 -0.073 0.242 -0.177 0.449q1.21 -0.01 2.42 -0.024c0.375 -0.005 0.749 -0.009 1.124 -0.011q0.544 -0.004 1.087 -0.012c0.204 -0.003 0.408 -0.004 0.612 -0.005 1.009 -0.016 1.893 -0.106 2.682 -0.778 0.532 -0.674 0.739 -1.5 0.966 -2.312l0.099 -0.334c0.22 -0.78 0.462 -1.673 0.082 -2.433 -0.795 -0.636 -1.721 -0.564 -2.687 -0.563l-0.485 -0.003c-0.437 -0.003 -0.873 -0.004 -1.31 -0.004 -0.457 -0.001 -0.914 -0.004 -1.371 -0.006 -0.864 -0.005 -1.729 -0.007 -2.593 -0.01 -0.984 -0.003 -1.969 -0.007 -2.953 -0.012q-3.036 -0.014 -6.073 -0.023c0.216 -0.447 0.49 -0.841 0.791 -1.235 0.266 -0.351 0.488 -0.689 0.674 -1.09 0.945 -1.832 2.817 -1.539 4.608 -1.493" fill="#05285C"/><path d="m112.787 47.992 0.296 0 0.32 0.001h0.34c0.371 0 0.742 0.001 1.113 0.002l0.772 0.001q1.015 0.001 2.031 0.002c0.691 0.001 1.382 0.002 2.072 0.002q2.033 0.002 4.066 0.005c-0.062 0.383 -0.132 0.756 -0.232 1.132l-0.076 0.288 -0.081 0.305a133.751 133.751 0 0 0 -0.596 2.333c-0.197 0.801 -0.419 1.593 -0.65 2.385 -0.183 0.632 -0.348 1.266 -0.504 1.905a30.793 30.793 0 0 1 -0.561 2.01c-0.241 0.78 -0.44 1.572 -0.634 2.364 -0.24 0.981 -0.5 1.95 -0.796 2.915 -0.205 0.67 -0.388 1.344 -0.561 2.023 -0.079 0.277 -0.079 0.277 -0.183 0.381 -0.141 0.034 -0.284 0.062 -0.427 0.088l-0.275 0.05 -0.299 0.053 -0.305 0.055q-0.32 0.058 -0.64 0.115 -0.491 0.088 -0.982 0.178l-0.62 0.112 -0.298 0.054 -0.276 0.049c-0.12 0.022 -0.12 0.022 -0.243 0.044 -0.197 0.031 -0.197 0.031 -0.405 0.031q0.045 -0.23 0.091 -0.46l0.051 -0.259c0.141 -0.685 0.296 -1.362 0.487 -2.035l0.065 -0.234a303.373 303.373 0 0 1 0.451 -1.59q0.118 -0.413 0.235 -0.826l0.06 -0.213c0.35 -1.235 0.669 -2.477 0.971 -3.725 0.179 -0.734 0.377 -1.456 0.608 -2.176 0.092 -0.306 0.166 -0.612 0.234 -0.924 0.197 -0.892 0.459 -1.766 0.715 -2.642 0.095 -0.329 0.189 -0.658 0.283 -0.987q-0.86 0.011 -1.721 0.027 -0.292 0.005 -0.584 0.009c-0.281 0.004 -0.563 0.009 -0.844 0.015l-0.26 0.002c-0.728 0.018 -1.403 0.13 -1.965 0.617 -0.335 0.466 -0.455 1.033 -0.6 1.579l-0.09 0.322a76.102 76.102 0 0 0 -0.175 0.64 37.845 37.845 0 0 1 -0.174 0.623c-0.151 0.525 -0.268 1.008 -0.274 1.558 -0.003 0.111 -0.006 0.222 -0.01 0.337 0.034 0.297 0.034 0.297 0.265 0.455 0.43 0.192 0.807 0.191 1.273 0.194l0.277 0.006c0.29 0.006 0.581 0.009 0.871 0.013q0.296 0.005 0.592 0.011 0.724 0.013 1.449 0.022c-0.124 0.661 -0.317 1.256 -0.583 1.873l-0.102 0.242c-0.082 0.194 -0.165 0.388 -0.248 0.581q-1.21 0.011 -2.42 0.016 -0.562 0.002 -1.124 0.007c-0.362 0.003 -0.725 0.005 -1.087 0.006 -0.204 0.001 -0.408 0.003 -0.612 0.006 -1.015 0 -1.929 -0.101 -2.741 -0.761 -0.654 -0.66 -0.769 -1.267 -0.768 -2.165 0.022 -0.933 0.262 -1.802 0.515 -2.695l0.143 -0.524c1.118 -4.041 1.118 -4.041 2.696 -5.12 0.798 -0.443 1.766 -0.707 2.681 -0.706" fill="#051F50"/><path d="M59.099 48.005q2.132 -0.015 4.264 -0.021c0.66 -0.002 1.32 -0.005 1.98 -0.01q0.957 -0.007 1.914 -0.008 0.364 -0.001 0.727 -0.004c3.238 -0.029 3.238 -0.029 4.24 0.821 0.593 0.639 0.73 1.248 0.71 2.106 -0.062 1.27 -0.458 2.475 -0.804 3.69a55.264 55.264 0 0 0 -0.551 2.091c-0.189 0.777 -0.411 1.537 -0.659 2.297 -0.089 0.287 -0.153 0.564 -0.209 0.859q-2.346 0.011 -4.691 0.016 -1.089 0.002 -2.178 0.007c-0.701 0.004 -1.402 0.005 -2.104 0.006q-0.401 0.001 -0.801 0.003c-0.375 0.002 -0.75 0.003 -1.125 0.002l-0.332 0.003c-1.072 -0.004 -2.005 -0.212 -2.784 -0.991 -0.471 -0.731 -0.613 -1.506 -0.499 -2.365 0.304 -1.273 0.849 -2.466 1.97 -3.214 1.359 -0.833 2.782 -0.861 4.334 -0.872q0.245 -0.003 0.489 -0.006c0.425 -0.005 0.849 -0.009 1.274 -0.013 0.435 -0.004 0.87 -0.009 1.305 -0.015q1.276 -0.015 2.551 -0.027c0.119 -0.239 0.131 -0.402 0.143 -0.667l0.015 -0.246c-0.034 -0.245 -0.034 -0.245 -0.259 -0.394 -0.422 -0.194 -0.779 -0.19 -1.239 -0.189l-0.279 -0.003c-0.303 -0.003 -0.607 -0.004 -0.911 -0.005l-0.632 -0.006c-0.554 -0.005 -1.108 -0.008 -1.662 -0.011 -0.566 -0.003 -1.131 -0.008 -1.697 -0.013q-1.664 -0.013 -3.329 -0.022 0.119 -0.467 0.24 -0.933l0.067 -0.264a13.686 13.686 0 0 1 0.523 -1.603" fill="#062E64"/><path d="M93.314 42.821c-0.533 2.3 -0.533 2.3 -0.869 3.41 -0.081 0.275 -0.157 0.551 -0.233 0.827l-0.188 0.656 -0.087 0.32c-0.219 0.751 -0.219 0.751 -0.565 1.027l-0.236 0.085 0.267 -0.095a28.202 28.202 0 0 1 2.377 -0.708l0.263 -0.066c0.955 -0.234 1.86 -0.29 2.841 -0.29l0.374 -0.004c1.037 -0.002 1.853 0.1 2.691 0.749 0.626 0.675 0.691 1.257 0.669 2.159 -0.064 1.032 -0.386 2.035 -0.669 3.025l-0.074 0.26a73.407 73.407 0 0 1 -0.325 1.108c-0.301 0.995 -0.577 1.996 -0.842 3.001 -0.137 0.514 -0.277 1.027 -0.418 1.541H93.625c0.308 -1.311 0.634 -2.593 1.037 -3.875 0.177 -0.569 0.326 -1.141 0.465 -1.72 0.084 -0.346 0.173 -0.688 0.279 -1.028l0.118 -0.382 0.109 -0.337c0.077 -0.385 0.045 -0.674 -0.038 -1.056 -0.164 -0.214 -0.279 -0.295 -0.518 -0.415 -0.259 -0.013 -0.514 -0.019 -0.773 -0.021l-0.232 -0.002q-0.244 -0.001 -0.488 -0.002a81.184 81.184 0 0 1 -0.743 -0.007q-0.237 -0.001 -0.474 -0.002l-0.224 -0.004c-0.458 0.002 -0.744 0.071 -1.109 0.349 -0.416 0.59 -0.544 1.378 -0.72 2.066 -0.109 0.424 -0.231 0.844 -0.356 1.264a177.92 177.92 0 0 0 -0.583 2.009 254.228 254.228 0 0 1 -0.603 2.087l-0.065 0.221a25.611 25.611 0 0 1 -0.266 0.854H83.775c0.346 -1.617 0.346 -1.617 0.531 -2.255a90.203 90.203 0 0 0 0.517 -1.893l0.18 -0.686c0.295 -1.127 0.596 -2.25 0.939 -3.364 0.278 -0.906 0.522 -1.821 0.768 -2.735 0.327 -1.212 0.67 -2.419 1.018 -3.625q0.064 -0.223 0.128 -0.445 0.09 -0.314 0.181 -0.627l0.107 -0.37c0.089 -0.277 0.089 -0.277 0.193 -0.381 0.313 -0.054 0.626 -0.102 0.941 -0.146l0.288 -0.041q0.303 -0.043 0.605 -0.086 0.462 -0.066 0.923 -0.132l0.588 -0.084 0.278 -0.04c0.455 -0.064 0.893 -0.108 1.354 -0.092" fill="#062E65"/><path d="m83.153 43.754 -0.055 0.182c-0.148 0.491 -0.293 0.982 -0.434 1.474l-0.092 0.32q-0.093 0.325 -0.186 0.651l-0.092 0.319 -0.081 0.284c-0.115 0.348 -0.264 0.683 -0.408 1.02h3.836c-0.117 0.7 -0.117 0.7 -0.224 1.054l-0.068 0.229 -0.071 0.233q-0.07 0.232 -0.139 0.464l-0.062 0.205c-0.059 0.203 -0.11 0.409 -0.161 0.614l-3.836 0.104 -0.875 2.447 -0.419 1.173c-0.363 0.933 -0.363 0.933 -0.481 1.914l0.006 0.275 0.007 0.205c0.36 0.12 0.692 0.127 1.067 0.136l0.222 0.007q0.35 0.01 0.7 0.019l0.475 0.014q0.582 0.017 1.164 0.032c-0.219 0.906 -0.465 1.801 -0.726 2.696q-1.129 0.015 -2.258 0.021 -0.524 0.003 -1.049 0.01c-0.403 0.005 -0.806 0.007 -1.209 0.009l-0.375 0.006c-0.903 0 -1.583 -0.174 -2.353 -0.643 -0.533 -0.565 -0.769 -1.263 -0.753 -2.029 0.052 -1.002 0.37 -1.93 0.701 -2.87l0.069 -0.198c0.394 -1.13 0.837 -2.232 1.318 -3.328h-2.592c0.13 -0.975 0.337 -1.859 0.622 -2.799h2.488l0.311 -0.933a235.151 235.151 0 0 1 0.428 -1.244l0.113 -0.329 0.108 -0.312 0.098 -0.283c0.083 -0.216 0.083 -0.216 0.187 -0.32 0.296 -0.047 0.591 -0.089 0.888 -0.13 0.959 -0.135 1.903 -0.322 2.849 -0.531l0.303 -0.066 0.268 -0.06c0.262 -0.044 0.507 -0.05 0.773 -0.043" fill="#073570"/><path d="m36.081 65.009 -0.104 0.207c0.179 0.009 0.179 0.009 0.362 0.019l0.5 0.026 0.235 0.012q0.269 0.014 0.539 0.029c0.243 0.012 0.487 0.022 0.73 0.031 1.606 0.063 3.199 0.26 4.795 0.446q0.844 0.098 1.688 0.194l0.208 0.024a65.734 65.734 0 0 0 3.211 0.286c0.623 0.042 1.229 0.121 1.843 0.229 0.452 0.077 0.906 0.132 1.362 0.185l0.292 0.034q0.304 0.035 0.608 0.069 0.303 0.035 0.607 0.071c2.465 0.383 2.465 0.383 4.897 0.106l0.207 -0.311 -0.104 0.518 -0.622 0.104v0.207l0.347 -0.008c0.529 0 1.043 0.071 1.567 0.141 1.171 0.148 2.344 0.259 3.52 0.361l0.269 0.023q0.965 0.083 1.93 0.164 0.972 0.082 1.944 0.166 0.382 0.033 0.764 0.064c0.73 0.062 1.456 0.133 2.182 0.235 0.714 0.099 1.423 0.152 2.142 0.187l0.389 0.02q0.624 0.031 1.249 0.06l0.217 0.01c6.936 0.324 13.79 -0.071 20.7 -0.697l0.418 -0.038c3.186 -0.287 6.368 -0.586 9.54 -1.008 0.595 -0.079 1.19 -0.154 1.785 -0.228l0.27 -0.033 0.538 -0.067c1.069 -0.132 2.138 -0.266 3.205 -0.41l0.22 -0.03q0.505 -0.068 1.011 -0.139l0.354 -0.049 0.305 -0.043c0.306 -0.032 0.605 -0.035 0.912 -0.03 -0.091 0.7 -0.091 0.7 -0.207 0.933 -0.198 0.055 -0.198 0.055 -0.462 0.098l-0.302 0.05 -0.333 0.052 -0.347 0.056c-0.38 0.061 -0.76 0.12 -1.14 0.179l-0.793 0.125c-2.338 0.368 -4.68 0.702 -7.025 1.019a316.647 316.647 0 0 0 -1.414 0.196c-1.612 0.226 -3.22 0.445 -4.844 0.563 -0.438 0.034 -0.872 0.088 -1.308 0.145 -0.856 0.109 -1.714 0.188 -2.575 0.259l-0.47 0.039q-0.491 0.041 -0.982 0.081 -0.491 0.041 -0.982 0.082c-3.317 0.28 -6.618 0.519 -9.948 0.51q-0.335 -0.001 -0.67 -0.001c-3.147 -0.003 -6.268 -0.174 -9.398 -0.495 -0.94 -0.096 -1.881 -0.185 -2.822 -0.275q-0.537 -0.052 -1.075 -0.104c-1.458 -0.141 -1.458 -0.141 -2.917 -0.269 -4.186 -0.35 -8.353 -1.002 -12.501 -1.648 -0.798 -0.124 -1.597 -0.243 -2.396 -0.361 -2.974 -0.439 -5.941 -0.903 -8.905 -1.405l-1.084 -0.184c-1.021 -0.172 -2.044 -0.328 -3.068 -0.476v-0.207c0.355 -0.168 0.558 -0.243 0.933 -0.104" fill="#4C0E14"/><path d="M89.23 27.553c0.307 0.001 0.613 0 0.92 -0.001 2.1 -0.002 4.16 0.221 6.236 0.521 0.093 0.013 0.187 0.027 0.283 0.041 2.619 0.378 5.23 0.892 7.739 1.748l0.238 0.079c6.649 2.221 12.643 6.702 15.902 13.001 0.138 0.295 0.138 0.295 0.138 0.502 -0.654 -0.096 -1.29 -0.26 -1.929 -0.424 -0.462 -0.115 -0.9 -0.21 -1.376 -0.232 -0.473 -0.026 -0.824 -0.071 -1.257 -0.277 -0.384 -0.492 -0.54 -1.119 -0.732 -1.704 -0.155 -0.423 -0.371 -0.801 -0.603 -1.186l-0.132 -0.219c-0.675 -1.094 -1.486 -2.076 -2.369 -3.008l-0.273 -0.293c-3.28 -3.45 -7.895 -5.268 -12.376 -6.55l-0.258 -0.076c-1.211 -0.351 -2.447 -0.565 -3.689 -0.773l-0.232 -0.04c-2.678 -0.457 -5.367 -0.491 -8.076 -0.479 -0.333 0.001 -0.665 0.001 -0.998 0.001q-0.487 0 -0.974 0.001 -0.229 0 -0.458 0.001c-0.744 0.001 -1.48 0.009 -2.22 0.098 -0.28 0.032 -0.558 0.033 -0.839 0.03l-0.292 -0.003 -0.213 -0.004v-0.104q0.643 -0.084 1.286 -0.166 0.217 -0.028 0.434 -0.056c2.038 -0.266 4.062 -0.436 6.119 -0.427" fill="#D4380E"/><path d="m103.146 47.992 0.25 0.001h0.283l0.308 0.002 0.313 0.001c0.332 0.001 0.663 0.002 0.995 0.003q0.336 0.001 0.673 0.001 0.827 0.002 1.653 0.005c-0.427 1.735 -0.427 1.735 -0.654 2.482 -0.571 1.906 -1.094 3.826 -1.591 5.752l-0.095 0.369q-0.093 0.361 -0.186 0.722c-0.215 0.837 -0.451 1.664 -0.688 2.495h-4.666c0.238 -1.069 0.464 -2.062 0.8 -3.091 0.152 -0.481 0.273 -0.968 0.392 -1.458 0.239 -0.978 0.503 -1.947 0.778 -2.916q0.185 -0.654 0.369 -1.309l0.094 -0.334a60.343 60.343 0 0 0 0.602 -2.326c0.102 -0.381 0.102 -0.381 0.369 -0.398" fill="#052A5F"/><path d="m79.788 37.205 0.25 -0.001q0.398 -0.001 0.796 -0.001l0.274 0c5.144 0.007 5.144 0.007 5.882 0.745l-0.248 0.016c-1.593 0.16 -2.99 0.864 -4.336 1.698l-0.188 0.115c-0.215 0.141 -0.215 0.141 -0.419 0.345 -1.089 0.925 -2.409 0.73 -3.76 0.707q-0.398 -0.002 -0.797 -0.004c-0.625 -0.003 -1.249 -0.009 -1.874 -0.018 -0.712 -0.009 -1.424 -0.014 -2.136 -0.018a647.806 647.806 0 0 1 -4.388 -0.042c0.41 -0.426 0.913 -0.64 1.439 -0.901l0.337 -0.168c2.8 -1.369 6.018 -2.469 9.167 -2.474" fill="#051539"/><path d="M93.314 42.821c-0.532 2.292 -0.532 2.292 -0.871 3.411 -0.078 0.272 -0.147 0.545 -0.217 0.819q-0.088 0.325 -0.176 0.65l-0.076 0.314c-0.204 0.729 -0.204 0.729 -0.544 0.998 -0.253 0.139 -0.253 0.139 -0.497 0.246 -0.228 0.087 -0.228 0.087 -0.418 0.301a8.088 8.088 0 0 1 -0.538 0.175l-0.361 0.107 -0.209 0.062c-0.498 0.147 -0.994 0.297 -1.491 0.447l-0.318 0.095 -0.301 0.091 -0.27 0.081c-0.233 0.08 -0.443 0.175 -0.659 0.291 -0.118 -0.424 -0.084 -0.661 0.071 -1.069 0.174 -0.487 0.314 -0.969 0.434 -1.471 0.176 -0.731 0.385 -1.448 0.605 -2.166 0.211 -0.692 0.407 -1.388 0.594 -2.088 0.151 -0.556 0.151 -0.556 0.266 -0.671 0.313 -0.054 0.626 -0.102 0.941 -0.146l0.288 -0.041q0.303 -0.043 0.605 -0.086 0.462 -0.066 0.923 -0.132l0.588 -0.084 0.278 -0.04c0.455 -0.064 0.893 -0.108 1.354 -0.092" fill="#084284"/><path d="m91.033 38.985 0.234 0.091c0.851 0.339 1.616 0.712 2.358 1.25 0.797 0.572 1.64 0.552 2.592 0.525v0.207c-9.933 1.173 -9.933 1.173 -13.997 0.311 0.999 -1.313 2.775 -2.599 4.426 -2.86 1.538 -0.168 2.943 -0.09 4.387 0.475" fill="#071232"/><path d="m78.17 42.607 0.215 0.001q0.259 0.002 0.517 0.005c-0.419 0.341 -0.852 0.65 -1.296 0.956l-0.259 0.185 -0.265 0.181c-0.231 0.213 -0.319 0.333 -0.455 0.603 -0.286 0.548 -0.595 1.055 -1.195 1.283 -0.689 0.15 -1.393 0.168 -2.096 0.193 -0.491 0.019 -0.98 0.061 -1.47 0.104 -2.995 0.255 -5.955 0.298 -8.956 0.136l-0.235 -0.012a79.523 79.523 0 0 1 -0.66 -0.039l-0.379 -0.023c-0.383 -0.046 -0.722 -0.117 -1.084 -0.25 -0.191 -0.573 -0.211 -1.248 -0.011 -1.821 0.115 -0.226 0.115 -0.226 0.322 -0.563 0.774 -0.064 1.256 0.195 1.873 0.648 0.249 0.218 0.46 0.461 0.674 0.713 0.452 0.526 0.807 0.727 1.497 0.816 0.32 0.015 0.641 0.017 0.961 0.017l0.277 0.001q0.289 0.001 0.579 0.001c0.293 0 0.587 0.002 0.88 0.004q0.282 0.001 0.565 0.001l0.263 0.002c0.763 -0.003 1.446 -0.073 2.035 -0.603 1.859 -1.557 3.792 -2.062 6.156 -2.43l0.378 -0.062c0.393 -0.047 0.775 -0.051 1.171 -0.048" fill="#07153A"/><path d="m71.67 40.941 0.442 0q0.46 0 0.921 0.001 0.577 0.001 1.155 0c1.816 -0.002 3.627 0.025 5.441 0.118l0.104 0.207 -0.197 0.012c-1.45 0.096 -2.851 0.251 -4.261 0.61l-0.253 0.064c-0.919 0.242 -1.819 0.544 -2.721 0.842 -3.093 1.02 -6.588 1.157 -9.71 0.143a6.325 6.325 0 0 0 -1.003 -0.22c0.625 -0.709 1.757 -0.899 2.637 -1.121l0.271 -0.069c0.419 -0.102 0.804 -0.189 1.238 -0.158 -0.255 0.255 -0.488 0.311 -0.829 0.415 1.208 -0.401 2.361 -0.632 3.629 -0.726 0.11 -0.009 0.22 -0.017 0.333 -0.026 0.935 -0.068 1.864 -0.093 2.802 -0.092" fill="#052659"/><path d="M65.838 63.039q0.628 -0.012 1.256 -0.017 0.213 -0.002 0.427 -0.006c0.205 -0.004 0.41 -0.005 0.615 -0.007l0.373 -0.005c0.455 0.048 0.721 0.215 1.041 0.534 0.171 0.315 0.171 0.492 0.123 0.849 -0.207 0.607 -0.469 0.948 -1.037 1.244h-0.207l0.726 1.452c-0.888 0.11 -0.888 0.11 -1.348 0 -0.259 -0.309 -0.406 -0.602 -0.564 -0.972l-0.162 -0.272h-0.518l-0.311 1.244h-1.244c0.133 -0.776 0.293 -1.542 0.467 -2.31 0.13 -0.576 0.249 -1.154 0.363 -1.734" fill="#FCF8F7"/><path d="M73.614 63.039c0.454 -0.009 0.907 -0.015 1.361 -0.019l0.389 -0.008 0.377 -0.003 0.345 -0.005c0.459 0.049 0.799 0.22 1.151 0.515 0.179 0.4 0.112 0.762 0.007 1.179 -0.256 0.511 -0.51 0.718 -1.037 0.933 0.116 0.32 0.255 0.608 0.428 0.901 0.194 0.343 0.194 0.343 0.194 0.551h-1.348c-0.622 -1.115 -0.622 -1.115 -0.622 -1.348h-0.622l-0.042 0.216 -0.055 0.283 -0.055 0.281c-0.055 0.257 -0.055 0.257 -0.159 0.568h-1.244q0.128 -0.599 0.256 -1.197l0.119 -0.554a745.164 745.164 0 0 1 0.208 -0.971l0.068 -0.322 0.065 -0.302 0.058 -0.271c0.054 -0.219 0.054 -0.219 0.158 -0.427" fill="#FCF9F7"/><path d="M84.086 63.039h1.348l1.141 2.074c0.321 -1.034 0.321 -1.034 0.622 -2.074h1.141c-0.068 0.869 -0.27 1.701 -0.473 2.547l-0.104 0.437q-0.126 0.53 -0.253 1.06c-0.183 0.011 -0.366 0.019 -0.549 0.025l-0.309 0.014c-0.283 -0.039 -0.283 -0.039 -0.483 -0.226 -0.161 -0.241 -0.291 -0.488 -0.422 -0.747a69.777 69.777 0 0 0 -0.35 -0.564c-0.272 -0.446 -0.272 -0.446 -0.272 -0.68h-0.207l-0.038 0.239c-0.106 0.652 -0.227 1.295 -0.377 1.938h-1.244c0.144 -0.916 0.326 -1.817 0.531 -2.722l0.087 -0.388a595.861 595.861 0 0 1 0.211 -0.934" fill="#FBF7F5"/><path d="M62.144 55.043h0.352l0.382 0.002 0.39 0.001q0.513 0.001 1.026 0.002 0.523 0.001 1.047 0.002 1.027 0.002 2.054 0.005c-0.11 0.701 -0.23 1.389 -0.415 2.074q-1.182 0.012 -2.364 0.017 -0.402 0.002 -0.804 0.006c-0.385 0.004 -0.77 0.006 -1.156 0.007 -0.12 0.002 -0.24 0.003 -0.363 0.005h-0.34l-0.298 0.002c-0.36 -0.049 -0.639 -0.194 -0.897 -0.452 -0.084 -0.694 -0.084 -0.694 0.132 -1.042 0.405 -0.476 0.62 -0.63 1.254 -0.629" fill="#F9F9FA"/><path d="m106.488 44.033 0.334 -0.005c0.585 0 1.025 0.011 1.526 0.349 0.256 0.256 0.241 0.346 0.246 0.7 -0.013 0.506 -0.095 0.79 -0.454 1.166 -0.983 0.708 -2.46 0.872 -3.629 0.726 -0.474 -0.201 -0.771 -0.38 -1.037 -0.829 -0.063 -0.436 -0.035 -0.658 0.168 -1.05 0.828 -1.003 1.62 -1.06 2.845 -1.056" fill="#EC810E"/><path d="M79.11 63.039h3.525l-0.104 0.933h-2.488l-0.104 0.622h2.177c-0.104 0.829 -0.104 0.829 -0.207 0.933a7.879 7.879 0 0 1 -0.486 0.01l-0.297 -0.001 -0.312 -0.003 -0.313 -0.001q-0.384 -0.002 -0.769 -0.005l-0.104 0.622h2.385c-0.104 0.726 -0.104 0.726 -0.207 0.933h-3.629c0.233 -1.401 0.233 -1.401 0.36 -1.925l0.082 -0.339 0.083 -0.34 0.084 -0.352c0.206 -0.851 0.206 -0.851 0.324 -1.086" fill="#FCF8F7"/><path d="M62.689 63.006c0.081 0.011 0.163 0.022 0.246 0.033q0.176 0.613 0.349 1.228 0.059 0.208 0.119 0.416c0.229 0.799 0.415 1.567 0.466 2.4h-1.244l-0.104 -0.726h-1.866l-0.207 0.518c-0.207 0.207 -0.207 0.207 -0.5 0.228l-0.343 -0.007 -0.344 -0.006 -0.265 -0.007c0.177 -0.51 0.464 -0.9 0.784 -1.33a17.834 17.834 0 0 0 0.808 -1.196l0.183 -0.287a17.834 17.834 0 0 0 0.348 -0.567c0.44 -0.675 0.774 -0.76 1.571 -0.697" fill="#FBF8F7"/><path d="M95.699 63.039c0.292 -0.03 0.292 -0.03 0.635 -0.019l0.344 0.009 0.265 0.011q0.201 0.738 0.399 1.478 0.067 0.251 0.136 0.502 0.098 0.362 0.195 0.723l0.062 0.226c0.105 0.395 0.142 0.699 0.142 1.115h-1.244l-0.104 -0.622 -1.866 -0.104 -0.207 0.415 -0.207 0.311c-0.315 0.03 -0.315 0.03 -0.687 0.019l-0.373 -0.009 -0.288 -0.011c0.55 -0.846 1.137 -1.667 1.721 -2.49 0.547 -0.772 0.547 -0.772 1.079 -1.554" fill="#FBF6F5"/><path d="m81.674 31.402 0.36 0q0.377 0 0.755 0.001c0.378 0.001 0.757 0 1.135 -0.001 1.371 0 2.735 0.026 4.103 0.118v0.311h-0.207l-0.091 0.292c-0.117 0.33 -0.117 0.33 -0.324 0.641 -0.215 0.037 -0.215 0.037 -0.48 0.034l-0.297 -0.001 -0.318 -0.007 -0.323 -0.003c-0.912 -0.013 -1.82 -0.058 -2.729 -0.126 0.108 -0.401 0.211 -0.777 0.415 -1.141 -0.284 -0.008 -0.565 -0.009 -0.849 -0.006l-0.242 -0.009c-0.254 0.005 -0.438 0.018 -0.672 0.119 -0.105 0.215 -0.105 0.215 -0.185 0.467 -0.119 0.255 -0.119 0.255 -0.334 0.467 -0.671 0.189 -1.416 0.121 -2.106 0.11q-0.296 0.001 -0.592 0.002c-0.483 0.002 -0.966 -0.002 -1.449 -0.009 0.069 -0.368 0.163 -0.692 0.311 -1.037l0.199 -0.008q0.451 -0.018 0.902 -0.037l0.314 -0.012 0.306 -0.013 0.28 -0.011c0.28 -0.016 0.28 -0.016 0.55 -0.074 0.523 -0.075 1.041 -0.065 1.568 -0.064" fill="#F3F2ED"/><path d="M101.226 35.163c1.37 0.435 3.443 1.967 4.143 3.229l0.076 0.177a51.737 51.737 0 0 1 -0.7 0.428l-0.199 0.125c-0.486 0.289 -0.486 0.289 -0.767 0.238 -0.299 -0.252 -0.566 -0.528 -0.835 -0.81 -0.646 -0.661 -1.317 -1.173 -2.11 -1.649l-0.187 -0.113a51.633 51.633 0 0 0 -0.532 -0.314c-0.269 -0.186 -0.269 -0.186 -0.372 -0.497l0.272 -0.123c0.28 -0.151 0.443 -0.264 0.668 -0.473 0.305 -0.233 0.305 -0.233 0.544 -0.218" fill="#FDFAF8"/><path d="m57.44 62.916 0.376 -0.004c0.337 0.023 0.566 0.086 0.868 0.231l-0.311 0.933 -0.386 -0.015q-0.254 -0.006 -0.508 -0.011l-0.254 -0.011c-0.57 -0.009 -0.887 0.071 -1.34 0.451 -0.268 0.353 -0.254 0.71 -0.207 1.141 0.139 0.248 0.139 0.248 0.415 0.415 0.338 0.051 0.67 0.039 1.011 0.026l0.279 -0.006c0.227 -0.005 0.453 -0.012 0.68 -0.02l-0.104 0.933c-0.514 0.204 -0.953 0.242 -1.497 0.24l-0.228 0.005c-0.537 0.001 -0.909 -0.098 -1.386 -0.348 -0.454 -0.478 -0.552 -0.868 -0.539 -1.507 0.066 -0.797 0.357 -1.306 0.942 -1.846 0.653 -0.511 1.38 -0.602 2.19 -0.606" fill="#FBF6F5"/><path d="M60.862 43.547c0.774 -0.064 1.256 0.195 1.873 0.648 0.249 0.218 0.46 0.461 0.674 0.713 0.453 0.528 0.807 0.723 1.497 0.816 0.285 0.015 0.569 0.026 0.855 0.033l0.241 0.007q0.379 0.01 0.757 0.019l0.516 0.014q0.63 0.017 1.26 0.032v0.104l-2.903 0.104v0.104l2.903 0.104v0.104c-1.878 0.022 -3.749 0.015 -5.625 -0.091l-0.234 -0.012a82.738 82.738 0 0 1 -0.662 -0.039l-0.379 -0.023c-0.383 -0.046 -0.722 -0.117 -1.084 -0.25 -0.191 -0.573 -0.211 -1.248 -0.011 -1.821 0.115 -0.226 0.115 -0.226 0.322 -0.563" fill="#091435"/><path d="M89.582 63.039h3.94l-0.207 0.933h-1.348l-0.078 0.505c-0.145 0.876 -0.346 1.74 -0.544 2.605h-1.244c0.048 -0.778 0.21 -1.49 0.421 -2.238 0.079 -0.288 0.142 -0.58 0.201 -0.873h-1.244z" fill="#FBF7F6"/><path d="M99.95 63.039h1.244c-0.155 1.019 -0.38 2.006 -0.622 3.007h2.177c-0.207 0.933 -0.207 0.933 -0.311 1.037a16.383 16.383 0 0 1 -0.736 0.01l-0.223 -0.001c-0.236 -0.001 -0.471 -0.002 -0.707 -0.003q-0.239 -0.001 -0.478 -0.001 -0.587 -0.002 -1.174 -0.005c0.05 -0.894 0.256 -1.739 0.473 -2.605l0.103 -0.42q0.125 -0.509 0.253 -1.018" fill="#FAF5F4"/><path d="M120.686 63.661c0.889 -0.041 1.728 0.095 2.598 0.254 0.241 0.044 0.483 0.086 0.725 0.128q0.232 0.041 0.464 0.083l0.217 0.038c0.355 0.066 0.661 0.141 0.973 0.326 -0.289 0.192 -0.439 0.253 -0.766 0.326l-0.278 0.063 -0.3 0.066 -0.309 0.069q-0.323 0.072 -0.647 0.143c-0.33 0.072 -0.659 0.146 -0.988 0.22l-0.629 0.139 -0.298 0.067 -0.28 0.061 -0.245 0.054c-0.256 0.041 -0.497 0.044 -0.756 0.038 0.128 -0.708 0.302 -1.388 0.518 -2.074" fill="#9A190F"/><path d="M95.699 32.867c0.811 0.15 1.57 0.374 2.339 0.668l0.243 0.091c0.433 0.17 0.742 0.326 1.047 0.694a135.202 135.202 0 0 1 -0.551 0.46l-0.31 0.259c-0.28 0.214 -0.28 0.214 -0.591 0.318 -0.22 -0.059 -0.22 -0.059 -0.474 -0.16l-0.282 -0.11 -0.294 -0.118a306.07 306.07 0 0 0 -0.571 -0.225l-0.28 -0.11c-0.399 -0.152 -0.803 -0.286 -1.209 -0.416 0.162 -0.337 0.35 -0.613 0.583 -0.907l0.198 -0.251z" fill="#FDFAF6"/><path d="m91.551 31.934 0.329 0.049c0.272 0.046 0.541 0.1 0.811 0.159l0.27 0.056c0.627 0.133 0.627 0.133 0.871 0.255 -0.062 0.141 -0.134 0.279 -0.207 0.415l-0.1 0.189 -0.12 0.2 -0.111 0.193c-0.314 0.242 -0.641 0.182 -1.017 0.144 -0.538 -0.075 -1.072 -0.166 -1.607 -0.259l-0.438 -0.075q-0.533 -0.091 -1.065 -0.184l0.099 -0.246c0.064 -0.161 0.126 -0.322 0.184 -0.486 0.401 -0.812 1.354 -0.522 2.102 -0.409" fill="#FCFAF6"/><path d="M68.741 30.897c-0.493 0.174 -0.988 0.299 -1.497 0.415 -0.843 0.192 -1.652 0.421 -2.459 0.736 -0.295 0.094 -0.295 0.094 -0.631 0.139 -0.385 0.058 -0.736 0.149 -1.108 0.262l-0.199 0.06c-0.208 0.063 -0.416 0.126 -0.624 0.19q-0.208 0.063 -0.416 0.125c-1.168 0.353 -2.317 0.744 -3.462 1.164q-0.319 0.117 -0.637 0.233l-0.409 0.15 -0.37 0.136a7.258 7.258 0 0 0 -0.733 0.331q-0.206 0.072 -0.415 0.136c-0.492 0.16 -0.965 0.355 -1.442 0.557a74.962 74.962 0 0 1 -0.923 0.382c-1.259 0.526 -2.483 1.133 -3.712 1.724a89.166 89.166 0 0 1 -2.01 0.933l0.104 0.311 -0.269 0.111q-0.496 0.204 -0.992 0.409l-0.429 0.177q-0.309 0.127 -0.618 0.255l-0.375 0.155c-0.312 0.127 -0.312 0.127 -0.555 0.266 -0.183 0.079 -0.183 0.079 -0.494 -0.025 3.131 -1.681 6.276 -3.285 9.545 -4.683q0.279 -0.12 0.558 -0.24c1.553 -0.667 3.135 -1.244 4.73 -1.803l0.285 -0.1c1.101 -0.386 2.204 -0.738 3.33 -1.041 0.587 -0.159 1.165 -0.345 1.744 -0.53 1.136 -0.356 2.277 -0.648 3.443 -0.889a19.492 19.492 0 0 0 0.514 -0.116c0.216 -0.032 0.216 -0.032 0.527 0.072" fill="#1C2B55"/><path d="M81.805 31.519c-0.117 0.367 -0.242 0.691 -0.415 1.037l-4.147 0.104c0.077 -0.387 0.159 -0.682 0.311 -1.037 1.418 -0.076 2.831 -0.118 4.251 -0.104" fill="#F8F9FA"/><path d="m63.661 34.111 -0.104 0.518a24.78 24.78 0 0 1 -1.786 0.545c-0.339 0.091 -0.676 0.188 -1.013 0.285l-0.471 0.131c-1.851 0.517 -3.66 1.124 -5.459 1.8l-0.382 0.143c-0.638 0.243 -1.255 0.5 -1.859 0.819 -0.244 0.122 -0.491 0.223 -0.745 0.321 -0.536 0.208 -1.045 0.461 -1.555 0.726v0.311l-2.488 0.829v-0.207c2.666 -1.499 5.528 -2.689 8.398 -3.733l0.307 -0.113c1.285 -0.472 2.573 -0.863 3.901 -1.195 0.591 -0.148 1.174 -0.319 1.755 -0.5 0.433 -0.132 0.847 -0.212 1.295 -0.265v-0.311q-0.636 0.146 -1.272 0.293 -0.216 0.05 -0.431 0.099c-0.737 0.169 -1.469 0.343 -2.191 0.568 -0.499 0.151 -1.005 0.277 -1.51 0.407l-0.33 0.086q-0.399 0.103 -0.797 0.206l0.104 -0.311c0.29 -0.1 0.29 -0.1 0.688 -0.189q0.228 -0.053 0.457 -0.106l0.251 -0.057c0.471 -0.111 0.94 -0.234 1.409 -0.356q0.453 -0.116 0.906 -0.231 0.311 -0.079 0.621 -0.16c0.303 -0.078 0.606 -0.155 0.909 -0.232l0.28 -0.073 0.26 -0.065 0.228 -0.058c0.237 -0.031 0.4 0.004 0.627 0.076" fill="#192E5B"/><path d="m75.189 31.928 0.499 0.006 -0.415 0.933 -0.25 0.017q-0.562 0.039 -1.123 0.08l-0.394 0.027 -0.379 0.027 -0.349 0.025c-0.252 0.026 -0.475 0.07 -0.719 0.134 -0.216 0.007 -0.432 0.009 -0.648 0.007l-0.339 -0.003 -0.258 -0.004 -0.104 -0.311 -0.518 -0.104v-0.104c1.201 -0.219 2.399 -0.435 3.614 -0.56 0.477 -0.05 0.9 -0.178 1.382 -0.172" fill="#F2F6F8"/><path d="M71.541 40.955q1.103 -0.004 2.205 -0.006 0.373 -0.001 0.747 -0.002c1.715 -0.006 3.423 0.027 5.135 0.111l0.104 0.207 -0.207 0.016q-0.477 0.037 -0.953 0.075l-0.345 0.027c-0.596 0.049 -1.179 0.112 -1.767 0.219 -0.499 0.087 -0.822 0.066 -1.29 -0.13v-0.207h-0.397c-1.78 0 -1.78 0 -2 -0.058 -0.42 -0.064 -0.813 -0.001 -1.231 0.058z" fill="#163C6E"/><path d="M89.679 27.567q0.336 0.002 0.672 0.003 0.808 0.004 1.616 0.01v0.104L87.197 27.787c0.497 0.062 0.96 0.118 1.455 0.136l0.332 0.013 0.339 0.012 0.348 0.013q0.422 0.016 0.844 0.032v0.104l-0.257 0.003q-1.203 0.015 -2.407 0.032 -0.618 0.009 -1.237 0.016 -0.598 0.007 -1.196 0.016 -0.227 0.003 -0.454 0.006c-0.746 0.009 -1.487 0.023 -2.229 0.111 -0.28 0.031 -0.557 0.033 -0.839 0.029l-0.292 -0.003 -0.213 -0.004v-0.104q0.643 -0.084 1.286 -0.166 0.217 -0.028 0.434 -0.056c2.193 -0.286 4.356 -0.432 6.568 -0.413" fill="#EDA343"/><path d="m69.052 32.971 -0.207 0.622q-0.666 0.112 -1.333 0.221 -0.226 0.037 -0.453 0.075 -0.327 0.055 -0.654 0.108l-0.397 0.066c-0.377 0.047 -0.724 0.078 -1.103 0.048l-0.207 -0.311a30.587 30.587 0 0 1 2.702 -0.648l0.28 -0.055c0.464 -0.087 0.898 -0.148 1.372 -0.126" fill="#EAEEF3"/><path d="M70.018 32.537c0.295 0.021 0.454 0.055 0.693 0.227 0.063 0.215 0.063 0.215 0.104 0.415l0.247 -0.029c0.376 -0.043 0.751 -0.085 1.127 -0.127l0.388 -0.045c0.799 -0.088 1.582 -0.131 2.386 -0.111 -0.289 0.289 -0.502 0.258 -0.905 0.296l-0.21 0.02a75.896 75.896 0 0 1 -0.441 0.04c-0.223 0.02 -0.446 0.041 -0.669 0.062 -0.642 0.06 -1.276 0.108 -1.922 0.1l-0.104 -0.415a21.462 21.462 0 0 0 -0.603 -0.032l-0.339 -0.018 -0.303 0.051c-0.177 0.24 -0.177 0.24 -0.311 0.518 -0.296 0.266 -0.525 0.358 -0.917 0.413l-0.288 0.041 -0.299 0.038 -0.299 0.043c-0.799 0.109 -0.799 0.109 -1.205 -0.017 0.375 -0.146 0.731 -0.229 1.129 -0.277l0.275 -0.033a39.193 39.193 0 0 1 0.567 -0.062c0.253 -0.032 0.484 -0.064 0.725 -0.146 0.18 -0.254 0.18 -0.254 0.207 -0.518l-0.829 0.104v-0.207l0.314 -0.042 0.405 -0.056 0.405 -0.055c0.309 -0.052 0.381 -0.155 0.671 -0.179" fill="#34669A"/><path d="M68.741 30.897c-0.493 0.174 -0.988 0.299 -1.497 0.415 -0.843 0.192 -1.652 0.421 -2.459 0.736 -0.295 0.094 -0.295 0.094 -0.631 0.139 -0.385 0.058 -0.736 0.149 -1.108 0.262l-0.199 0.06c-0.208 0.063 -0.416 0.126 -0.624 0.19q-0.208 0.063 -0.416 0.125c-0.568 0.172 -1.135 0.346 -1.697 0.538 -0.334 0.109 -0.561 0.16 -0.907 0.127 0.84 -0.56 1.988 -0.766 2.959 -1.028 0.588 -0.16 1.169 -0.339 1.75 -0.522 1.251 -0.395 2.503 -0.732 3.788 -0.998a19.492 19.492 0 0 0 0.514 -0.116c0.216 -0.032 0.216 -0.032 0.527 0.072" fill="#15407C"/><path d="M69.571 45.828v0.207h1.244v0.104c-0.76 0.081 -1.508 0.118 -2.273 0.114l-0.309 -0.001c-0.321 -0.001 -0.642 -0.002 -0.963 -0.003q-0.329 -0.001 -0.659 -0.001 -0.801 -0.002 -1.603 -0.005v-0.104l0.518 -0.104v-0.104q0.614 -0.022 1.228 -0.044 0.31 -0.011 0.619 -0.023c0.733 -0.026 1.464 -0.045 2.197 -0.037" fill="#02092A"/><path d="m67.543 63.953 0.369 -0.004c0.311 0.024 0.311 0.024 0.519 0.231 -0.018 0.277 -0.077 0.388 -0.276 0.582 -0.314 0.186 -0.528 0.175 -0.89 0.163l-0.339 -0.009 -0.258 -0.011c0.105 -0.948 0.105 -0.948 0.875 -0.953" fill="#CA431B"/><path d="m36.081 65.009 -0.104 0.207 0.6 0.032 0.531 0.028c0.448 0.024 0.895 0.047 1.343 0.067 1.117 0.051 2.222 0.152 3.332 0.288v0.104q-0.434 0.004 -0.868 0.007l-0.249 0.003c-0.621 0.003 -0.621 0.003 -0.852 -0.113a8.916 8.916 0 0 0 -0.531 -0.013l-0.286 -0.001c-0.332 0.007 -0.332 0.007 -0.688 0.079 -0.629 0.084 -1.245 -0.057 -1.864 -0.162l-0.378 -0.061q-0.459 -0.075 -0.918 -0.153v-0.207c0.355 -0.168 0.558 -0.243 0.933 -0.104" fill="#671716"/><path d="M74.548 63.972h1.452l0.104 0.518c-0.207 0.311 -0.207 0.311 -0.518 0.415 -0.196 0.007 -0.393 0.009 -0.59 0.007l-0.312 -0.003 -0.239 -0.004z" fill="#D24D1E"/><path d="m79.628 31.416 0.207 0.207h-2.281l-0.104 0.518h-0.207v-0.207c-0.785 0.005 -0.785 0.005 -1.465 0.35 -0.209 0.264 -0.209 0.264 -0.298 0.583h-0.207c0.194 -0.596 0.194 -0.596 0.311 -0.829h-1.141l0.104 -0.207c0.277 -0.036 0.277 -0.036 0.642 -0.052 0.522 -0.03 1.032 -0.077 1.549 -0.156 0.957 -0.144 1.922 -0.254 2.89 -0.207" fill="#557D9C"/><path d="M124.315 64.801c-0.343 0.229 -0.653 0.302 -1.049 0.386l-0.218 0.048q-0.228 0.05 -0.457 0.099c-0.232 0.05 -0.464 0.101 -0.696 0.152q-0.222 0.048 -0.444 0.096l-0.209 0.046c-0.364 0.077 -0.702 0.122 -1.075 0.105 0.013 -0.194 0.013 -0.194 0.104 -0.415 0.421 -0.171 0.823 -0.247 1.273 -0.296l0.368 -0.04 0.38 -0.04 0.38 -0.042c0.551 -0.059 1.087 -0.108 1.641 -0.1" fill="#4D161B"/><path d="M71.541 40.955h5.495l-0.104 0.207c-0.747 0.145 -1.504 0.115 -2.262 0.11l-0.385 -0.001q-0.351 -0.001 -0.703 -0.003a100.158 100.158 0 0 0 -0.59 -0.002l-0.22 -0.058c-0.42 -0.064 -0.813 -0.001 -1.231 0.058z" fill="#064284"/><path d="M64.594 45.828h3.94v0.104l-2.903 0.104v0.104l2.903 0.104v0.104c-1.973 0.011 -3.94 0.017 -5.91 -0.104v-0.104h2.074z" fill="#505970"/><path d="m47.694 38.673 0.104 0.207 -0.269 0.111q-0.496 0.204 -0.992 0.409l-0.429 0.177q-0.309 0.127 -0.618 0.255l-0.375 0.155c-0.312 0.127 -0.312 0.127 -0.555 0.266 -0.183 0.079 -0.183 0.079 -0.494 -0.025q0.649 -0.36 1.3 -0.714 0.221 -0.121 0.442 -0.244a67.601 67.601 0 0 1 0.637 -0.348l0.198 -0.112c0.387 -0.206 0.633 -0.302 1.051 -0.137" fill="#1F2E56"/><path d="M68.741 40.643h2.799v0.104l4.666 0.104v0.104l-6.739 0.104v-0.104l-0.829 -0.104z" fill="#B4C3D5"/><path d="m35.563 44.998 0.104 0.311h9.124v0.104h-9.435z" fill="#001041"/><path d="M99.639 41.162h0.207c0.089 0.182 0.175 0.366 0.259 0.551l0.146 0.31c0.152 0.514 0.135 0.993 0.113 1.524l0.225 -0.055q0.509 -0.125 1.019 -0.249l0.354 -0.087c0.608 -0.148 1.201 -0.274 1.824 -0.334 -0.241 0.241 -0.359 0.26 -0.686 0.33l-0.293 0.064c-0.102 0.022 -0.205 0.044 -0.311 0.066q-0.311 0.068 -0.622 0.137c-0.1 0.022 -0.199 0.044 -0.302 0.067 -0.476 0.108 -0.947 0.235 -1.415 0.373l-0.008 -0.3c-0.038 -0.871 -0.15 -1.589 -0.51 -2.396" fill="#DE451C"/><path d="m88.337 59.41 0.104 0.415H83.775l0.104 -0.311 4.458 0.104z" fill="#081C45"/><path d="m70.044 32.55 0.253 0.006 -0.201 0.032 -0.214 0.071 -0.104 0.311 -0.201 0.039 -0.214 0.065a32.35 32.35 0 0 0 -0.207 0.518c-0.457 0.287 -0.98 0.31 -1.503 0.382l-0.299 0.045 -0.288 0.041 -0.262 0.037c-0.244 0.014 -0.423 -0.018 -0.655 -0.09 0.375 -0.146 0.731 -0.229 1.129 -0.277l0.275 -0.033a39.193 39.193 0 0 1 0.567 -0.062c0.253 -0.032 0.484 -0.064 0.725 -0.146 0.18 -0.254 0.18 -0.254 0.207 -0.518l-0.829 0.104v-0.207l0.314 -0.042 0.405 -0.056 0.405 -0.055c0.327 -0.055 0.382 -0.158 0.697 -0.166" fill="#184A84"/><path d="M80.043 63.972h2.488v0.104h-2.177v0.207l0.382 0.019 0.493 0.026 0.252 0.012c0.624 0.034 0.624 0.034 0.739 0.15 0.004 0.207 0.004 0.415 0 0.622h-0.207l0.104 -0.518h-2.177z" fill="#CC542C"/><path d="m57.958 66.668 0.104 0.415 -0.726 0.207v0.207c-1.085 -0.043 -2.148 -0.092 -3.214 -0.311v-0.104l0.287 0.002q0.529 0.003 1.058 0.004 0.229 0.001 0.457 0.002c0.22 0.001 0.439 0.002 0.659 0.002l0.4 0.002c0.306 -0.01 0.576 -0.044 0.872 -0.116z" fill="#81120D"/><path d="m59.41 33.593 -0.25 0.092q-0.462 0.17 -0.923 0.34l-0.399 0.147q-0.287 0.106 -0.574 0.212l-0.349 0.128c-0.296 0.11 -0.296 0.11 -0.537 0.235 -0.227 0.113 -0.423 0.134 -0.674 0.156l-0.251 0.024 -0.19 0.015c0.288 -0.192 0.53 -0.301 0.853 -0.421l0.324 -0.121a206.629 206.629 0 0 0 0.339 -0.125l0.332 -0.124c0.316 -0.118 0.634 -0.234 0.951 -0.349l0.274 -0.103 0.247 -0.089 0.213 -0.078c0.236 -0.049 0.387 -0.012 0.614 0.062" fill="#223664"/><path d="M62.002 64.387c0.327 0.327 0.272 0.687 0.311 1.141h-1.037c0.15 -0.3 0.285 -0.538 0.48 -0.804l0.14 -0.193z" fill="#C34329"/><path d="M68.741 30.897c-0.493 0.174 -0.988 0.299 -1.497 0.415 -0.986 0.224 -0.986 0.224 -1.944 0.544 -0.343 0.091 -0.411 0.04 -0.706 -0.13 0.425 -0.117 0.851 -0.234 1.277 -0.35l0.361 -0.1c2.01 -0.547 2.01 -0.547 2.51 -0.38" fill="#265B98"/><path d="M43.65 63.35v0.104l-0.409 0.064 -0.537 0.085 -0.269 0.042q-0.26 0.041 -0.52 0.082 -0.295 0.047 -0.591 0.092c-0.276 0.042 -0.276 0.042 -0.564 0.166 -0.426 0.119 -0.72 0.062 -1.153 -0.013v-0.104c0.46 -0.088 0.92 -0.174 1.38 -0.259l0.391 -0.075c0.767 -0.141 1.493 -0.221 2.273 -0.184" fill="#9B241C"/><path d="M57.958 43.858c0.372 0.372 0.333 0.806 0.343 1.316 -0.003 0.913 -0.207 1.748 -0.447 2.624h-0.104q0.022 -0.269 0.045 -0.538c0.008 -0.1 0.017 -0.2 0.026 -0.303 0.033 -0.3 0.033 -0.3 0.086 -0.544 0.052 -0.282 0.062 -0.538 0.061 -0.824l-0.001 -0.307 -0.003 -0.317 -0.001 -0.322q-0.002 -0.393 -0.005 -0.786" fill="#2A588D"/><path d="m39.237 65.501 0.298 -0.002c0.282 0.028 0.453 0.091 0.694 0.235v0.207h0.518v0.104c-0.836 0.051 -1.578 -0.098 -2.385 -0.311 0.346 -0.231 0.47 -0.235 0.875 -0.233" fill="#461419"/><path d="M100.572 34.837h0.311v0.207l0.181 -0.078 0.233 -0.026c0.233 0.201 0.233 0.201 0.415 0.415l-0.317 -0.091c-0.448 -0.014 -0.478 0.002 -0.784 0.285l-0.179 0.175c-0.217 0.19 -0.404 0.235 -0.689 0.253v0.207l-0.311 -0.104v-0.207l0.285 -0.123c0.413 -0.23 0.645 -0.493 0.855 -0.914" fill="#F8B461"/><path d="M102.957 48.005h4.666l-0.104 0.207 -0.373 -0.003c-0.457 -0.004 -0.914 -0.006 -1.371 -0.008q-0.296 -0.002 -0.593 -0.004c-0.284 -0.003 -0.569 -0.004 -0.853 -0.005l-0.267 -0.003c-0.451 0 -0.799 0.02 -1.209 0.231z" fill="#3A648F"/><path d="M60.855 66.315c0.252 -0.009 0.499 -0.003 0.752 0.01l0.265 0.007c0.216 0.006 0.432 0.015 0.648 0.025l-0.104 0.415v-0.207c-0.231 0.006 -0.462 0.016 -0.693 0.026l-0.39 0.015c-0.411 0.071 -0.589 0.193 -0.887 0.478 -0.104 -0.207 -0.104 -0.207 -0.014 -0.477 0.222 -0.248 0.222 -0.248 0.423 -0.29" fill="#B13D2D"/><path d="M124.419 64.283c0.889 -0.03 0.889 -0.03 1.244 0.207 -0.301 0.201 -0.47 0.261 -0.816 0.331l-0.265 0.056c-0.286 0.03 -0.507 -0.005 -0.785 -0.076 0.222 -0.222 0.325 -0.252 0.622 -0.311z" fill="#7F1713"/><path d="M74.34 48.005h2.488l0.104 0.207h-2.385l-0.104 0.207z" fill="#20548C"/><path d="M96.01 64.387c0.217 0.353 0.226 0.628 0.207 1.037h-0.829c0.142 -0.414 0.338 -0.705 0.622 -1.037" fill="#B62C0F"/><path d="m47.694 38.673 0.104 0.207a34.838 34.838 0 0 1 -0.492 0.214l-0.277 0.12c-0.283 0.085 -0.409 0.078 -0.682 -0.023v-0.207c0.881 -0.509 0.881 -0.509 1.348 -0.311" fill="#0E1D4B"/><path d="M77.14 63.454h0.207c0.209 0.418 0.181 0.896 0.104 1.348 -0.202 0.324 -0.441 0.576 -0.726 0.829l-0.311 -0.207 0.24 -0.11c0.368 -0.265 0.452 -0.499 0.59 -0.927 0.028 -0.364 0.012 -0.587 -0.104 -0.933" fill="#CA461E"/><path d="M61.38 32.764v0.207q-0.398 0.131 -0.797 0.259l-0.227 0.075c-0.396 0.127 -0.732 0.218 -1.154 0.184 0.347 -0.231 0.696 -0.351 1.089 -0.48l0.213 -0.072c0.304 -0.101 0.553 -0.174 0.876 -0.174" fill="#284578"/><path d="m78.17 42.607 0.215 0.001q0.259 0.002 0.517 0.005l-0.518 0.415 -0.207 -0.104v-0.207c-0.482 0.05 -0.482 0.05 -0.933 0.207 -0.208 -0.029 -0.416 -0.063 -0.622 -0.104v-0.104c0.522 -0.086 1.017 -0.115 1.549 -0.11" fill="#333E5C"/><path d="M65.735 41.369c-0.309 0.309 -0.677 0.332 -1.096 0.427l-0.252 0.091 -0.104 0.311 -0.207 -0.104 0.207 -0.311 -0.415 -0.104q0.32 -0.079 0.642 -0.156l0.361 -0.088c0.301 -0.059 0.559 -0.082 0.864 -0.068" fill="#33466C"/><path d="m93.314 63.765 0.207 0.311c-0.178 0.178 -0.424 0.138 -0.667 0.156 -0.407 0.022 -0.407 0.022 -0.784 0.156l-0.104 -0.415h1.348z" fill="#CE5332"/><path d="M43.65 63.35v0.104c-0.801 0.141 -1.57 0.241 -2.385 0.207v-0.104c0.804 -0.157 1.566 -0.236 2.385 -0.207" fill="#A23027"/><path d="m116.332 57.544 0.207 0.207c-0.009 0.539 -0.009 0.539 -0.104 0.829 -0.266 0.207 -0.266 0.207 -0.518 0.311l0.149 -0.499 0.084 -0.281c0.058 -0.19 0.119 -0.379 0.182 -0.568" fill="#D2D7E1"/><path d="m49.249 39.71 0.104 0.311 -1.555 0.518v-0.207q0.304 -0.156 0.609 -0.311l0.343 -0.175c0.292 -0.136 0.292 -0.136 0.5 -0.136" fill="#37476C"/><path d="M120.271 65.32h0.726l0.104 0.311 -0.933 0.104z" fill="#49232A"/><path d="M77.243 41.058c0.319 0.068 0.526 0.16 0.829 0.311l-1.555 0.207 0.311 -0.311h0.415z" fill="#1B3762"/><path d="M85.849 37.637c0.151 0.012 0.302 0.025 0.454 0.039l0.255 0.022c0.224 0.043 0.224 0.043 0.432 0.25l-1.141 0.104z" fill="#2A395E"/><path d="M35.874 64.905v0.415l0.311 0.104 -1.037 -0.104v-0.207c0.492 -0.207 0.492 -0.207 0.726 -0.207" fill="#803535"/><path d="m62.106 42.302 0.311 0.104v0.207l0.311 0.207 -1.141 -0.104c0.311 -0.311 0.311 -0.311 0.518 -0.415" fill="#08133C"/><path d="M71.541 40.955h1.348c-0.36 0.18 -0.526 0.238 -0.907 0.272l-0.251 0.024 -0.19 0.015z" fill="#033776"/><path d="m109.177 49.456 0.207 0.311 -0.194 0.24c-0.226 0.278 -0.226 0.278 -0.428 0.59h-0.207c0.15 -0.426 0.364 -0.771 0.622 -1.141" fill="#1C437C"/><path d="M69.156 45.828h0.415v0.207h1.244v0.104h-1.659z" fill="#000527"/><path d="M69.571 40.332v0.207l0.622 0.104v0.104h-1.348c0.415 -0.415 0.415 -0.415 0.726 -0.415" fill="#182342"/><path d="m82.946 40.54 0.311 0.104 -0.726 0.726 -0.311 -0.104z" fill="#0E1635"/><path d="M56.299 56.092h0.207l-0.045 0.311c-0.059 0.414 -0.111 0.829 -0.162 1.244h-0.104q-0.004 -0.272 -0.006 -0.544l-0.004 -0.306c0.009 -0.255 0.04 -0.462 0.114 -0.705" fill="#526281"/><path d="M58.062 53.396c0 0.311 0 0.311 -0.259 0.59l-0.259 0.24 -0.311 -0.104z" fill="#153364"/><path d="M108.452 50.597c0.123 0.356 0.083 0.558 -0.045 0.907l-0.09 0.251 -0.072 0.19h-0.207l0.149 -0.499 0.084 -0.281c0.058 -0.19 0.119 -0.379 0.182 -0.568" fill="#1B3D73"/><path d="M68.534 45.828h0.622v0.311h0.518v0.104h-1.141l0.311 -0.207z" fill="#0F1937"/><path d="M100.364 35.252c0 0.311 0 0.311 -0.194 0.538 -0.22 0.188 -0.22 0.188 -0.428 0.188v0.207l-0.311 -0.104v-0.207l0.292 -0.136c0.276 -0.146 0.443 -0.254 0.641 -0.486" fill="#F79C32"/><path d="M121.723 65.216v0.207c-0.307 0.153 -0.595 0.11 -0.933 0.104 0.271 -0.361 0.501 -0.34 0.933 -0.311" fill="#310C12"/><path d="m75.688 31.934 0.415 0.104 -0.253 0.24c-0.283 0.257 -0.283 0.257 -0.369 0.59h-0.207c0.11 -0.353 0.208 -0.624 0.415 -0.933" fill="#456C90"/><path d="m114.258 66.46 0.104 0.207 0.829 -0.104c-0.357 0.238 -0.616 0.263 -1.037 0.311z" fill="#131936"/><path d="M110.111 48.731v0.311c-0.311 0.227 -0.311 0.227 -0.622 0.415l-0.207 -0.104z" fill="#1B4279"/></svg>